PathFileType	4	(X/Y/Z)	Patient5_TMGait_0pt45_1_left_03.trc.trc
DataRate	CameraRate	NumFrames	NumMarkers	Units	OrigDataRate	OrigDataStartFrame	OrigNumFrames
58.091286307054	58.091286307054	5	32	mm	58.091286307054	71	       141
Frame#	Time	R.ASIS			L.ASIS			Chest			R.Shoulder			Neck			L.Shoulder			L.Elbow			L.Wrist			R.Elbow			R.Wrist			L.Thigh.Superior			L.Thigh.Lateral			L.Thigh.Inferior			L.Patella			L.Shank.Superior			L.Shank.Lateral			L.Shank.Inferior			L.Heel			L.Midfoot.Lateral			L.Midfoot.Superior			L.Toe			R.Thigh.Superior			R.Thigh.Lateral			R.Thigh.Inferior			R.Patella			R.Shank.Superior			R.Shank.Lateral			R.Shank.Inferior			R.Heel			R.Midfoot.Lateral			R.Midfoot.Superior			R.Toe			
		X1	Y1	Z1	X2	Y2	Z2	X3	Y3	Z3	X4	Y4	Z4	X5	Y5	Z5	X6	Y6	Z6	X7	Y7	Z7	X8	Y8	Z8	X9	Y9	Z9	X10	Y10	Z10	X11	Y11	Z11	X12	Y12	Z12	X13	Y13	Z13	X14	Y14	Z14	X15	Y15	Z15	X16	Y16	Z16	X17	Y17	Z17	X18	Y18	Z18	X19	Y19	Z19	X20	Y20	Z20	X21	Y21	Z21	X22	Y22	Z22	X23	Y23	Z23	X24	Y24	Z24	X25	Y25	Z25	X26	Y26	Z26	X27	Y27	Z27	X28	Y28	Z28	X29	Y29	Z29	X30	Y30	Z30	X31	Y31	Z31	X32	Y32	Z32	

71	4.585000000000	906.077296950707	1013.062199186777	546.698648061217	929.338232450837	959.920974695336	302.332234235169	975.649066804902	1446.601622386508	437.273855991870	839.337279244668	1506.939800841284	578.016568352313	850.093596634185	1564.052007124987	390.838368781174	964.286115611380	1513.418521165097	235.458383949867	967.529048340908	1182.273992068542	109.742355206307	1124.074994111594	946.027105477379	150.234075301261	732.524134815202	1181.989763246115	688.908108929637	951.043638703068	991.424974047440	672.521240469166	928.572990759932	733.502859511280	317.587453621750	850.051707497228	668.439076961813	270.089992944667	903.205546854459	605.662610046603	344.144771883183	886.505693670591	492.632458426440	354.294246627512	829.510647172117	395.673476079807	371.914865628616	767.668226830894	328.598005764124	289.147880163896	785.071432155046	276.551812456465	380.844576816971	635.930308296715	50.723228153914	378.127993111216	724.437741272867	28.210778101827	317.721571327235	820.339177435731	87.981294631665	363.945815715861	929.171252865623	44.840449857418	365.735972675526	974.799506000751	812.152680624569	579.243126407337	920.499559479464	724.527074546540	649.184699385269	1017.087562822326	690.917184761329	586.010563560317	1050.129047613553	598.081895578568	633.223331909295	1022.355545612396	486.105078326221	602.180047076890	946.689953386879	415.334285517842	677.965317104844	1018.053395292558	345.958445681238	609.107436596925	920.037299222031	117.429133632797	578.245727482406	993.326963429379	80.867617084885	654.799785521291	1096.639067608494	152.737782228095	653.286739916437	1201.542771039268	113.507977005381	656.958724466154	
72	4.602214285714	906.020283881034	1012.108014857829	547.389460743000	928.131245820090	959.436923902147	302.321965587529	973.060195444080	1445.963061611673	438.313621199015	836.427210153453	1505.939008730933	579.224978676756	847.115880069063	1563.076087823678	392.101590399040	961.383649962535	1512.647479869565	236.463542531930	963.630655337369	1181.271224034463	111.163788779537	1118.394280663096	943.859230998970	152.167918549246	728.913287092631	1181.280697643409	690.034049325786	947.613038278877	990.864180929136	674.944849272290	926.097457583176	732.513968439104	317.645268914062	847.057843261131	667.882788889410	270.456606690755	899.688315019404	604.937130341811	344.181713122105	881.617307774615	491.685582770199	353.918421462516	823.779606567154	395.249186115283	371.713242038206	761.295065527976	328.652177954966	288.994849098978	778.649476934706	276.417917768805	380.647392398546	628.197091622563	50.823355377431	378.138035016174	716.675743074035	28.238307856862	317.762774047705	812.658479217625	88.090594603175	363.767909247763	921.402836794327	44.794081050156	365.700110792958	977.075548993182	811.262446458339	575.010293040589	925.097943354897	723.571104978000	647.367523764292	1020.119046985479	690.468439597911	581.510002874127	1055.077215922569	598.349634991518	628.343789321241	1028.215055615925	486.239117041674	598.847352749531	955.534167802732	414.674938656085	676.710416476531	1026.415431665783	346.116022587029	606.587903987515	931.659662704911	115.745560524424	578.861923603551	1007.154135656970	80.835734585980	654.107243158487	1109.073953018500	154.608819847574	650.143315910521	1214.719214812719	117.267129513389	651.951507240268	
73	4.619428571429	906.491099740290	1011.005980329848	548.001617501099	926.979084121263	958.933451834631	302.256867110780	970.648784511275	1445.246491412494	439.416306139988	833.876655011608	1504.749236379497	580.726629929365	844.231771867638	1561.993645504150	393.688108718552	958.357560170809	1511.908099904524	237.588552822002	959.527904760380	1180.332203441016	112.608433572432	1112.495584520502	941.744863960246	154.035996249769	725.638909056070	1180.412358261441	691.474200454106	944.277502573450	989.893689690378	677.510331310497	923.654882775293	731.465427114297	317.391793510313	844.235675842418	667.373557732289	270.655319162407	896.440816267616	604.255692821867	344.061031448311	876.975294262735	490.693045986316	353.416871520097	818.259548189769	394.820410604841	371.444506038330	754.992567710298	328.778617502745	288.796103674935	772.394946307394	276.285154443033	380.412842865141	620.469221491960	50.928541147195	378.143184709116	708.918245503395	28.256137180063	317.802691730922	804.988074708919	88.172405139263	363.577063410105	913.640718238350	44.791415973648	365.620197388993	979.371765714119	809.822430764948	571.584631621468	929.373809328147	722.207997443766	645.662328859931	1022.854149968820	689.410988152748	577.357530657840	1059.411765982590	598.005333954926	623.834990695612	1033.271059250538	485.761701407050	595.705507287143	963.326160481709	413.580283824662	675.474616201808	1033.607823994953	345.693148781811	604.129538319829	941.648721327123	113.821231378646	579.241660475345	1019.130751394011	80.363517396165	653.161910136452	1119.812254913673	155.703128660461	646.937870691328	1226.043385444310	119.939541576480	646.902198717161	
74	4.636642857143	907.444285551458	1009.712789597137	548.496735942235	925.876514876961	958.389749256091	302.168307386669	968.434414530710	1444.470529171878	440.575383651122	831.734258440457	1503.382119990184	582.529091648438	841.457733523986	1560.815089521452	395.594104140907	955.186237944755	1511.215261658556	238.818669799440	955.214645164714	1179.474875797064	114.056359712025	1106.419195108153	939.725038934505	155.804287367598	722.749473047720	1179.387680928319	693.218593141131	941.090854662577	988.512592631777	680.172773683713	921.275984424296	730.408428296141	316.890993292273	841.524127697809	666.943176777567	270.662878124049	893.385884646358	603.594795071764	343.766459170301	872.506706219332	489.674055377521	352.777131356790	812.914162361870	394.396716867024	371.081854309848	748.706363140914	328.991343042859	288.546360482063	766.271577463525	276.159017577795	380.118467130853	612.744668992475	51.050244949480	378.137023702343	701.160358221222	28.266834552817	317.838875315603	797.322602569336	88.228060044689	363.367363901471	905.876958763115	44.824723326451	365.503504798667	981.615777210263	807.852683094626	569.204277285833	933.156066598830	720.365111296019	644.163971146730	1025.275733446986	687.767432699639	573.779859012001	1063.046769738809	597.000330825220	619.879532607303	1037.510129640676	484.652524893146	592.815231582998	969.944999721032	411.947505062229	674.179825648931	1039.636744382072	344.644282509403	601.720687703375	950.049141744532	111.588822675290	579.135996419865	1029.221754966444	79.325593700763	651.815839283142	1128.840134910336	155.920961785656	643.690088486278	1235.521455900198	121.441774351448	641.959141192466	
75	4.653857142857	908.802697326804	1008.180976930470	548.839482283153	924.827281470251	957.780896668467	302.092994182168	966.433251695817	1443.648303137168	441.794298282984	830.036534920484	1501.851133134634	584.632171091564	838.812302629526	1559.547552997825	397.810456972525	951.863293419586	1510.571275479047	240.147307676509	950.677189020756	1178.708838133821	115.485337837445	1100.204624702618	937.835850993644	157.434251000023	720.298107495744	1178.210068542077	695.269967218268	938.114323558611	986.729183292453	682.886938755198	919.032373867650	729.404944654055	316.243422207925	838.846877098617	666.598544318020	270.496279676606	890.453369811598	602.933045276926	343.293949512968	868.141066510407	488.650950406679	351.997967494794	807.705159833949	393.982083873370	370.616261649863	742.396641764405	329.294754724064	288.249543229370	760.243127336625	276.044239043501	379.754504393851	605.022180865473	51.200358098159	378.119263493401	693.397405737724	28.276448215497	317.871672878658	789.658550887838	88.265645337213	363.133334955115	898.104751943557	44.877338223470	365.363761574647	983.768331906297	805.397894701812	567.951001618375	936.337330493881	717.990651398476	642.944899423068	1027.388038671421	685.567954830413	570.917923654628	1065.936251979363	595.289616954303	616.578118596748	1040.933425941629	482.901802603712	590.198693738852	975.313481794806	409.704991834840	672.756720281839	1044.518282570353	342.943032652685	599.339269149349	956.891476422304	109.005705378739	578.348997590346	1037.400893729190	77.620190538369	649.956759223257	1136.155023225184	155.186535247654	640.424359563528	1243.167915228817	121.711974139203	637.253968485758	
